# xmcd CD database file
#
# Track frame offsets:
#	150
#	19416
#	38326
#	52158
#	72598
#	89135
#	106098
#	135829
#	161369
#	188543
#	211433
#	239270
#	253959
#	274691
#	293316
#	312624
#
# Disc length: 4441 seconds
#
# Revision: 2
# Processed by: cddbd v1.5.2PL0 Copyright (c) Steve Scherf et al.
# Submitted via: CDex 1.70beta2
#
DISCID=e3115710
DTITLE=Smooth Jazz Cafe - Smooth Jazz Cafe 13 CD1
DYEAR=2013
DGENRE=Jazz
TTITLE0=Michael BublĂ©  - Cry Me A River
TTITLE1=Renee Olstead - Breaking Up Is Hard To Do
TTITLE2=George Benson - Mona Lisa
TTITLE3=Dave Koz, Gerald Albright, Mindi Abair, Richard Elliot - So Very Hard To Go
TTITLE4=Monika Lidke I Basia - Tum Tum Song
TTITLE5=Ruben Blades - I Can't Stay
TTITLE6=Sting - End Of The Game
TTITLE7=Stacey Kent  - This Happy Madness
TTITLE8=Mario Bondi Feat. Leon Ware  - Catch The Sunshine 
TTITLE9=Ana Moura - A Case Of You
TTITLE10=Richard Bona - Mut'esukudu
TTITLE11=Anna Gadt - You
TTITLE12=Michael "Patches" Stewart - Child In Me
TTITLE13=Erin Boheme - The Last Time
TTITLE14=Tony Desare - To Touch A Woman 
TTITLE15=Kofi - Harlem Nocturne
EXTD=YEAR: 2013
EXTT0=
EXTT1=
EXTT2=
EXTT3=
EXTT4=
EXTT5=
EXTT6=
EXTT7=
EXTT8=
EXTT9=
EXTT10=
EXTT11=
EXTT12=
EXTT13=
EXTT14=
EXTT15=
PLAYORDER=
